<?xml version="1.0" standalone="no"?>
<!DOCTYPE svg PUBLIC "-//W3C//DTD SVG 20010904//EN"
 "http://www.w3.org/TR/2001/REC-SVG-20010904/DTD/svg10.dtd">
<svg version="1.0" xmlns="http://www.w3.org/2000/svg"
 width="316.000000pt" height="131.000000pt" viewBox="0 0 316.000000 131.000000"
 preserveAspectRatio="xMidYMid meet">

<g transform="translate(0.000000,131.000000) scale(0.100000,-0.100000)"
fill="#000000" stroke="none">
<path d="M992 1223 c-39 -72 -64 -397 -44 -551 26 -191 102 -265 187 -182 57
55 112 186 165 395 l29 110 1 -180 c1 -187 13 -365 25 -386 19 -29 23 39 26
411 4 386 4 395 -15 395 -17 0 -22 -12 -33 -90 -18 -122 -83 -382 -122 -480
-79 -205 -168 -230 -202 -58 -21 103 -18 395 5 503 11 47 19 94 20 105 1 25
-30 32 -42 8z"/>
<path d="M686 1196 c-73 -27 -151 -132 -144 -195 3 -22 5 -19 20 23 35 98 100
156 177 156 35 0 49 -6 76 -33 43 -43 55 -90 55 -218 0 -169 -46 -313 -123
-387 -29 -28 -41 -33 -73 -30 -31 2 -42 9 -59 38 -18 31 -20 52 -20 175 0 114
5 157 24 229 23 89 20 113 -11 101 -24 -9 -59 -154 -65 -265 -13 -224 46 -340
157 -310 79 21 158 149 186 301 23 121 16 270 -17 335 -40 79 -105 108 -183
80z"/>
<path d="M350 1169 c-30 -33 -84 -157 -114 -261 l-16 -56 -30 11 c-26 10 -37
9 -68 -8 -39 -21 -53 -52 -30 -66 7 -5 35 -9 62 -9 48 0 48 0 41 -27 -7 -30
-39 -186 -49 -240 -7 -40 11 -55 19 -16 3 15 19 73 36 128 16 55 29 112 29
128 0 25 3 27 39 27 21 0 66 3 100 6 l61 7 0 -139 c0 -148 7 -177 37 -158 16
10 18 26 15 144 -3 102 -1 135 10 141 10 7 10 11 0 21 -8 8 -12 48 -12 124 0
129 -13 209 -39 244 -27 37 -56 37 -91 -1z m65 -16 c5 -10 10 -88 13 -174 l4
-156 -38 -6 c-22 -4 -67 -7 -101 -7 l-61 0 25 83 c64 211 132 322 158 260z
m-221 -309 c9 -3 16 -12 16 -20 0 -10 -15 -14 -55 -14 -30 0 -55 2 -55 5 0 6
59 34 72 35 3 0 13 -3 22 -6z"/>
<path d="M2626 920 c-21 -19 -45 -57 -64 -101 l-29 -71 -7 42 c-9 55 -28 48
-41 -16 -22 -110 -117 -201 -173 -166 -7 5 -13 34 -15 69 -1 34 1 59 6 56 20
-12 3 18 -20 37 -37 29 -103 23 -141 -12 -15 -14 -42 -31 -60 -38 -28 -11 -35
-10 -51 4 -11 10 -22 32 -25 50 -4 18 -16 42 -27 52 -19 17 -23 17 -47 3 -15
-8 -37 -32 -49 -54 l-23 -40 0 37 c0 71 -39 60 -47 -14 -5 -40 -8 -44 -54 -65
l-48 -21 -3 61 c-3 56 -5 62 -25 65 -14 2 -23 -2 -23 -10 0 -7 -7 -2 -16 10
-19 27 -53 28 -102 3 -73 -37 -125 -123 -126 -207 -1 -60 15 -84 55 -84 32 0
77 50 145 161 20 32 39 59 42 59 3 0 2 -24 -2 -54 -5 -42 -13 -62 -37 -88
-109 -116 -177 -303 -158 -437 7 -50 44 -91 83 -91 83 0 135 145 154 437 5 67
13 128 20 135 6 8 29 24 51 36 l41 23 0 -94 c0 -73 4 -97 15 -107 25 -21 38 2
46 83 8 88 34 178 59 209 l18 23 11 -42 c13 -49 51 -83 92 -83 26 0 28 -2 19
-26 -13 -33 -13 -80 0 -105 26 -47 119 -8 157 65 l16 31 9 -33 c6 -24 18 -37
40 -46 45 -19 85 -5 136 48 l42 45 0 -90 c0 -71 3 -91 15 -95 22 -9 45 14 45
46 0 46 56 253 83 305 31 61 63 93 78 78 18 -18 30 -160 23 -260 -6 -82 -4
-93 10 -93 9 0 16 7 16 15 0 24 39 97 68 128 46 49 47 47 82 -125 17 -86 63
-107 107 -49 17 22 53 130 53 158 0 44 -16 22 -34 -48 -19 -75 -57 -132 -75
-114 -6 6 -18 46 -26 90 -19 97 -32 132 -51 139 -24 9 -63 -15 -87 -53 l-22
-36 -6 110 c-7 115 -12 138 -37 168 -22 25 -47 21 -86 -13z m-999 -193 c-26
-45 -127 -169 -143 -174 -19 -6 -25 27 -13 71 24 89 83 148 146 144 l31 -2
-21 -39z m648 23 c3 -5 0 -10 -7 -10 -8 0 -22 -23 -32 -51 -32 -89 -126 -159
-126 -94 0 33 31 94 62 121 45 41 90 56 103 34z m-629 -282 c-8 -119 -39 -283
-63 -333 -18 -37 -51 -47 -71 -22 -35 42 -19 182 34 295 29 65 91 161 103 162
2 0 1 -46 -3 -102z"/>
</g>
</svg>
